<?xml version="1.0" standalone="no"?>
<!DOCTYPE svg PUBLIC "-//W3C//DTD SVG 20010904//EN"
 "http://www.w3.org/TR/2001/REC-SVG-20010904/DTD/svg10.dtd">
<svg version="1.0" xmlns="http://www.w3.org/2000/svg"
 width="806.000000pt" height="378.000000pt" viewBox="0 0 806.000000 378.000000"
 preserveAspectRatio="xMidYMid meet">

<g transform="translate(0.000000,378.000000) scale(0.100000,-0.100000)"
fill="#000000" stroke="none">
<path d="M1445 2899 c-557 -80 -957 -589 -904 -1148 57 -612 623 -1047 1230
-946 374 62 687 323 819 682 77 213 81 479 10 695 -160 482 -655 789 -1155
717z m75 -49 c0 -5 -4 -10 -10 -10 -5 0 -10 5 -10 10 0 6 5 10 10 10 6 0 10
-4 10 -10z m60 0 c0 -5 -7 -10 -15 -10 -8 0 -15 5 -15 10 0 6 7 10 15 10 8 0
15 -4 15 -10z m-77 -41 c-12 -12 -6 -123 9 -151 9 -19 44 -23 68 -8 19 12 17
150 -3 162 -7 5 -2 8 16 8 l27 0 0 -77 c0 -90 -20 -123 -76 -123 -54 0 -77 27
-82 101 -2 35 -9 69 -14 76 -6 8 -2 13 14 16 45 8 53 8 41 -4z m272 -75 c53
-85 65 -84 68 6 2 37 5 49 15 45 8 -3 18 -5 24 -5 7 0 7 -4 1 -12 -5 -7 -18
-50 -28 -95 -10 -46 -21 -83 -24 -83 -4 0 -29 36 -56 79 -55 87 -63 87 -68 2
-2 -52 -4 -55 -31 -45 -11 4 -13 10 -7 18 5 6 17 48 26 93 10 45 21 80 25 78
4 -3 29 -39 55 -81z m250 37 c7 -12 -12 -24 -25 -16 -11 7 -4 25 10 25 5 0 11
-4 15 -9z m-732 -108 c67 -63 73 -72 54 -77 -15 -3 -30 3 -47 19 -23 22 -27
22 -52 9 -32 -17 -31 -14 -18 -49 9 -23 7 -27 -18 -36 -15 -6 -35 -18 -45 -27
-15 -13 -26 -14 -68 -5 -41 8 -52 7 -56 -4 -7 -19 15 -43 41 -43 19 0 18 -2
-9 -24 -29 -24 -30 -24 -38 -4 -12 34 -99 128 -111 121 -6 -3 0 6 14 21 14 15
37 34 52 42 36 19 66 2 74 -42 6 -33 24 -44 76 -44 56 0 58 4 58 117 0 58 4
103 9 101 5 -1 43 -35 84 -75z m727 60 c2 -2 0 -7 -6 -11 -17 -12 -76 -151
-68 -163 5 -9 -28 3 -44 16 -1 1 13 35 33 76 19 40 35 79 35 87 0 9 7 11 23 6
12 -3 24 -8 27 -11z m79 -110 c-32 -95 -23 -99 64 -30 36 28 40 29 55 13 14
-14 14 -16 1 -16 -8 0 -51 -22 -94 -49 -44 -27 -83 -47 -86 -45 -4 2 -3 21 3
41 5 21 14 68 21 104 11 65 12 66 33 53 l21 -14 -18 -57z m237 -152 c-4 -6
-12 -11 -17 -11 -6 0 -8 3 -5 8 2 4 -2 16 -10 26 -14 19 -14 19 -40 -5 l-25
-24 21 -17 c12 -10 19 -22 15 -28 -9 -15 -25 -12 -25 4 0 7 -6 19 -13 25 -11
8 -19 5 -37 -14 -26 -27 -21 -51 12 -64 22 -9 22 -9 4 -17 -15 -6 -27 1 -52
31 l-32 38 64 55 c35 30 64 62 64 71 0 10 14 2 41 -26 23 -22 38 -46 35 -52z
m-580 59 c455 -117 669 -621 433 -1022 -83 -141 -219 -252 -373 -305 -74 -26
-93 -28 -226 -28 -125 1 -154 4 -210 23 -146 52 -275 151 -359 277 -238 356
-103 830 288 1012 139 65 300 80 447 43z m-845 -121 c44 -11 87 -18 95 -15 17
7 18 -3 0 -26 -10 -14 -19 -16 -46 -8 -27 8 -36 6 -46 -8 -19 -25 -17 -50 5
-64 19 -12 19 -12 1 -39 -11 -14 -24 -38 -29 -52 -9 -23 -13 -25 -48 -16 -77
17 -81 13 -33 -36 24 -24 42 -47 39 -49 -2 -2 -31 -8 -64 -13 l-60 -9 43 -23
c24 -12 50 -20 58 -17 10 4 11 0 4 -20 -6 -14 -10 -38 -10 -54 0 -21 -11 -38
-40 -63 -22 -19 -40 -39 -40 -45 0 -16 53 -15 68 0 9 9 12 5 12 -18 l0 -29
-100 0 -100 0 0 32 c0 73 34 104 86 77 33 -18 27 -19 69 17 56 50 49 68 -45
114 -44 21 -80 42 -80 46 0 4 21 11 48 14 26 3 60 9 76 12 l28 5 -58 59 c-32
32 -52 59 -44 59 8 0 51 -7 95 -15 76 -15 80 -15 99 4 19 20 19 20 -32 104
-29 47 -52 87 -52 91 0 10 15 7 101 -15z m1504 -32 c14 -24 25 -51 25 -59 0
-26 -37 -51 -64 -44 -22 5 -26 1 -40 -41 -21 -63 -21 -77 4 -70 23 6 24 3 8
-22 -15 -24 -3 -53 19 -49 10 2 28 23 42 46 13 24 35 49 48 55 22 10 28 8 49
-16 30 -35 32 -67 4 -67 -18 0 -19 3 -8 20 10 15 10 22 1 31 -19 19 -40 3 -62
-45 -35 -81 -99 -70 -123 20 -19 75 -20 91 -5 125 20 49 12 63 -24 42 -16 -10
-29 -22 -29 -28 -1 -12 -30 25 -30 37 0 4 5 8 11 8 20 0 139 75 139 88 0 21 8
14 35 -31z m139 -371 c5 -22 4 -27 -7 -23 -21 8 -160 -18 -165 -32 -7 -21 -22
0 -22 30 0 18 4 28 10 24 14 -8 159 15 166 27 8 12 10 9 18 -26z m46 9 c0 -8
-7 -15 -15 -15 -8 0 -15 7 -15 15 0 8 7 15 15 15 8 0 15 -7 15 -15z m-34 -153
c-3 -25 -6 -62 -6 -83 0 -27 -4 -39 -14 -39 -12 0 -13 7 -5 32 5 18 9 34 9 35
0 2 -38 3 -84 3 -58 0 -86 -4 -89 -12 -3 -7 -6 3 -6 22 l-1 35 91 -4 92 -3 -6
35 c-5 30 -3 35 10 30 12 -5 14 -16 9 -51z m-1760 -163 c-26 -21 -35 -62 -16
-74 6 -4 24 -7 40 -7 22 -1 30 -6 30 -19 0 -15 -4 -17 -22 -10 -13 4 -51 11
-86 15 -115 13 -116 15 -24 81 45 32 82 66 83 74 0 9 5 3 11 -12 9 -24 7 -30
-16 -48z m1647 -13 c38 -10 76 -15 84 -12 11 5 13 2 9 -10 -3 -9 -9 -33 -12
-55 -4 -25 -12 -39 -21 -39 -11 0 -13 5 -8 18 14 33 10 45 -17 53 -32 8 -38 4
-38 -28 0 -12 -4 -23 -8 -23 -17 0 -21 13 -11 32 13 23 5 33 -34 42 -23 5 -29
2 -36 -16 -5 -14 -5 -28 1 -35 12 -14 0 -17 -19 -5 -9 6 -10 18 -2 47 17 66
18 68 32 57 6 -5 43 -17 80 -26z m-98 -125 c3 -5 -5 -11 -17 -13 -17 -2 -24
-11 -26 -32 -4 -31 -14 -30 103 -10 41 7 65 -8 65 -40 0 -30 -27 -66 -45 -60
-12 5 -10 10 7 23 25 21 18 57 -10 48 -91 -30 -101 -31 -122 -12 -23 21 -25
43 -8 80 11 25 41 34 53 16z m-1474 -23 c11 -20 7 -26 -32 -61 l-44 -39 61 6
c33 4 63 4 66 0 4 -3 -9 -30 -28 -60 -19 -30 -32 -54 -30 -54 17 0 94 45 90
52 -3 4 -1 8 4 8 9 0 26 -31 20 -35 -28 -16 -178 -71 -178 -65 0 5 16 34 35
64 19 30 35 58 35 62 0 4 -34 4 -75 0 -41 -4 -75 -3 -75 1 0 4 29 32 65 62 36
29 65 60 65 67 0 20 8 17 21 -8z m1449 -153 c36 -25 70 -43 78 -40 9 3 7 -5
-5 -25 -10 -17 -19 -26 -21 -20 -6 18 -141 102 -152 95 -15 -9 -12 2 7 31 9
15 19 21 23 15 3 -6 35 -31 70 -56z m110 -91 c0 -9 -5 -14 -12 -12 -18 6 -21
28 -4 28 9 0 16 -7 16 -16z m-581 -193 c9 -6 12 -19 8 -37 -4 -21 1 -32 19
-47 29 -23 30 -46 4 -80 -24 -31 -78 -46 -91 -26 -14 23 -10 30 10 17 26 -16
73 13 64 40 -10 29 -24 42 -46 42 -19 0 -19 1 -3 19 10 11 16 28 14 38 -4 23
-46 30 -54 9 -7 -20 -24 -21 -24 -3 0 27 70 46 99 28z m-454 -13 c-28 -85 -44
-155 -40 -169 5 -16 2 -16 -29 -7 -28 9 -33 13 -21 22 11 9 45 104 45 128 0 4
-8 8 -17 9 -12 0 -8 5 12 14 38 18 56 18 50 3z m153 -20 c17 -17 15 -44 -4
-63 -15 -15 -15 -17 0 -34 35 -38 4 -91 -54 -91 -57 1 -82 63 -38 94 17 12 20
18 10 28 -15 15 -15 51 0 66 16 16 70 16 86 0z m162 -9 c9 -16 8 -26 -3 -43
-14 -20 -13 -23 4 -34 24 -15 25 -59 2 -84 -9 -10 -30 -18 -49 -18 -58 0 -85
52 -44 87 19 17 19 17 0 30 -11 8 -20 21 -20 30 0 49 88 74 110 32z"/>
<path d="M1220 2657 c0 -17 5 -27 14 -27 24 0 27 16 6 35 -19 18 -20 17 -20
-8z"/>
<path d="M981 2581 c-11 -7 -10 -14 8 -40 25 -34 33 -37 50 -17 14 17 5 43
-20 56 -21 12 -20 12 -38 1z"/>
<path d="M1199 2267 c-34 -26 -39 -55 -39 -218 l0 -161 63 54 c173 151 227
160 237 37 3 -35 10 -64 17 -66 6 -2 45 29 85 70 79 79 105 94 138 77 16 -9
20 -21 20 -65 0 -61 7 -85 24 -85 6 0 41 30 76 66 36 36 78 72 93 80 26 14 31
14 54 -1 23 -15 25 -22 19 -59 -3 -22 -19 -76 -36 -120 -17 -43 -29 -85 -26
-92 9 -24 41 -16 74 19 l32 33 0 191 c0 191 0 191 -26 222 l-26 31 -381 0
c-285 -1 -386 -4 -398 -13z"/>
<path d="M1192 1867 l-32 -33 0 -178 c0 -102 4 -185 10 -197 25 -47 46 -49
425 -49 315 0 360 2 385 17 44 25 50 52 50 209 l0 146 -57 -49 c-145 -123
-181 -143 -219 -118 -19 12 -24 25 -26 77 -2 36 -8 63 -15 65 -7 3 -38 -23
-69 -57 -32 -33 -72 -70 -91 -81 -59 -37 -97 -2 -86 78 4 28 1 42 -11 52 -13
11 -26 2 -94 -62 -84 -80 -110 -94 -142 -77 -29 15 -26 67 9 154 28 70 35 96
32 124 -2 23 -37 12 -69 -21z"/>
<path d="M866 2354 c17 -24 19 -25 31 -8 15 21 16 19 -20 28 l-28 7 17 -27z"/>
<path d="M652 1868 c-24 -24 -13 -38 29 -38 36 0 40 2 37 23 -3 25 -45 36 -66
15z"/>
<path d="M2363 2338 c-35 -21 -35 -48 1 -48 26 0 46 18 46 41 0 27 -12 28 -47
7z"/>
<path d="M727 1636 c-16 -13 -15 -14 10 -19 33 -6 35 -5 27 17 -7 19 -13 20
-37 2z"/>
<path d="M1497 1053 c-22 -21 7 -71 30 -52 18 16 16 46 -3 53 -19 7 -19 7 -27
-1z"/>
<path d="M1480 956 c-20 -25 -8 -61 21 -64 34 -4 45 22 24 54 -18 28 -28 30
-45 10z"/>
<path d="M1653 1053 c-20 -7 -15 -41 7 -53 15 -8 21 -6 30 11 9 15 8 24 -1 35
-12 15 -16 16 -36 7z"/>
<path d="M1650 951 c-14 -27 -13 -37 6 -55 12 -12 20 -13 35 -6 24 13 24 42 1
63 -24 22 -29 21 -42 -2z"/>
<path d="M3210 2370 c0 -6 11 -15 24 -20 14 -5 30 -18 35 -29 14 -25 15 -395
1 -421 -5 -10 -23 -21 -40 -25 -56 -12 -20 -25 70 -25 89 0 126 12 70 24 -45
9 -51 37 -48 235 l3 176 23 -50 c13 -27 58 -128 99 -222 61 -138 79 -170 90
-162 7 6 13 15 13 19 0 3 43 101 95 216 l95 209 -3 -200 -2 -200 -32 -15 c-18
-8 -33 -18 -33 -22 0 -5 86 -8 190 -8 174 0 229 8 165 24 -35 9 -36 48 -4 122
l19 45 92 -3 93 -3 22 -64 c24 -74 21 -90 -18 -98 -16 -3 -29 -9 -29 -14 0
-10 213 -12 223 -2 4 4 -6 12 -22 19 -37 16 -45 31 -150 289 -56 137 -91 210
-101 210 -9 0 -46 -79 -107 -230 -109 -271 -135 -305 -201 -259 -22 15 -22 20
-22 224 0 176 2 211 16 224 8 9 22 16 30 16 8 0 14 7 14 15 0 12 -15 15 -74
15 l-73 0 -89 -200 c-49 -110 -91 -200 -94 -200 -3 0 -43 89 -90 198 l-85 197
-82 3 c-54 2 -83 -1 -83 -8z m993 -292 c-2 -5 -35 -8 -74 -8 -80 0 -80 -1 -44
91 51 128 43 126 84 19 21 -52 36 -98 34 -102z"/>
<path d="M4460 2366 c0 -9 8 -16 19 -16 38 0 42 -19 39 -241 l-3 -214 -32 -15
c-18 -8 -33 -18 -33 -22 0 -5 54 -8 120 -8 115 0 155 11 88 24 -54 11 -58 19
-58 127 0 103 3 109 43 93 9 -3 57 -59 108 -125 l94 -119 67 0 c38 0 68 3 68
8 0 4 -18 15 -39 25 -24 11 -67 51 -119 114 -45 54 -82 101 -82 105 0 3 13 9
30 13 73 16 116 99 89 173 -11 29 -25 42 -62 61 -43 21 -67 25 -193 29 -129 4
-144 3 -144 -12z m290 -44 c34 -27 39 -108 11 -144 -23 -29 -74 -48 -128 -48
l-33 0 0 105 0 105 64 0 c47 0 70 -5 86 -18z"/>
<path d="M5000 2368 c0 -8 13 -18 28 -24 25 -9 30 -18 35 -59 9 -61 7 -332 -2
-365 -4 -15 -20 -31 -38 -40 -18 -8 -33 -18 -33 -22 0 -5 43 -8 95 -8 52 0 95
3 95 8 0 4 -15 14 -33 22 l-32 15 -2 195 c-1 132 1 189 8 175 5 -11 49 -109
97 -219 48 -109 91 -198 96 -198 5 0 53 98 106 216 54 119 100 219 104 223 8
8 8 -344 0 -374 -4 -14 -20 -27 -40 -35 -18 -6 -31 -15 -28 -20 7 -11 224 -10
224 1 0 5 -14 12 -31 16 -19 4 -34 16 -40 32 -13 34 -12 389 2 414 5 11 22 24
36 30 44 16 12 30 -63 27 l-68 -3 -86 -193 c-48 -107 -90 -193 -96 -192 -5 1
-46 88 -91 194 l-82 191 -81 3 c-61 2 -80 0 -80 -10z"/>
<path d="M5957 2373 c-3 -5 -41 -100 -87 -213 -106 -265 -106 -266 -141 -280
-50 -21 -33 -30 56 -30 86 0 104 7 63 25 -19 8 -23 18 -22 50 1 22 8 57 17 78
l16 37 93 0 93 0 23 -63 c26 -73 22 -96 -19 -104 -63 -12 -23 -23 86 -23 69 0
115 4 115 10 0 5 -11 12 -25 16 -34 9 -59 54 -145 269 -40 99 -79 192 -86 208
-14 27 -29 34 -37 20z m48 -229 c13 -34 21 -65 18 -68 -11 -10 -143 -7 -143 4
0 9 30 92 60 165 l12 30 15 -34 c8 -19 25 -63 38 -97z"/>
<path d="M6280 2366 c0 -9 8 -16 19 -16 40 0 46 -25 49 -209 4 -208 -1 -240
-46 -261 -17 -8 -32 -18 -32 -22 0 -5 54 -8 120 -8 115 0 155 11 88 24 -54 11
-58 19 -58 127 0 83 3 99 16 99 31 0 53 -21 140 -135 l88 -115 138 0 c76 0
138 4 138 8 0 5 -11 14 -25 20 -30 14 -31 36 -6 107 l18 50 95 3 95 3 22 -59
c28 -78 27 -92 -9 -105 -16 -6 -30 -15 -30 -19 0 -4 50 -8 110 -8 67 0 110 4
110 10 0 6 -6 10 -13 10 -34 0 -71 65 -153 271 -103 257 -112 272 -135 212 -5
-16 -49 -124 -96 -241 -95 -235 -109 -254 -163 -232 -27 11 -200 203 -200 222
0 4 5 8 11 8 27 0 83 36 100 64 41 67 15 145 -59 179 -38 17 -73 21 -189 25
-127 4 -143 3 -143 -12z m295 -51 c32 -32 35 -100 5 -138 -22 -28 -74 -47
-127 -47 l-33 0 0 105 0 105 65 0 c57 0 69 -3 90 -25z m489 -137 c20 -51 36
-96 36 -100 0 -5 -34 -8 -75 -8 -41 0 -75 3 -75 8 0 9 72 192 76 192 1 0 19
-42 38 -92z"/>
<path d="M3325 1711 c-8 -15 3 -31 21 -31 9 0 14 7 12 17 -4 20 -24 28 -33 14z"/>
<path d="M3407 1714 c-14 -14 -7 -35 11 -32 9 2 17 10 17 17 0 16 -18 25 -28
15z"/>
<path d="M4133 1704 c-8 -20 8 -36 26 -25 15 10 8 41 -9 41 -6 0 -13 -7 -17
-16z"/>
<path d="M5877 1706 c-9 -22 18 -40 33 -22 6 9 9 20 5 26 -9 15 -32 12 -38 -4z"/>
<path d="M7237 1714 c-14 -15 -6 -34 14 -34 14 0 19 5 17 17 -3 18 -20 27 -31
17z"/>
<path d="M3200 1630 c0 -5 7 -10 15 -10 25 0 35 -44 35 -151 0 -92 2 -102 24
-124 45 -45 148 -42 192 6 16 17 20 39 22 123 3 121 8 146 27 146 7 0 17 5 20
10 4 6 -17 10 -54 10 -58 0 -81 -12 -43 -23 48 -12 41 -241 -8 -267 -10 -5
-37 -10 -59 -10 -62 0 -71 21 -71 158 0 105 1 114 20 119 43 11 17 23 -50 23
-40 0 -70 -4 -70 -10z"/>
<path d="M3640 1631 c0 -5 9 -11 20 -14 20 -5 20 -12 18 -138 -3 -131 -3 -134
-28 -146 -23 -11 -19 -13 40 -12 54 0 61 2 43 11 -21 10 -23 18 -24 105 -1 51
-2 99 -3 106 -6 36 14 16 105 -103 55 -71 104 -130 110 -130 5 0 9 57 9 136 0
135 8 174 35 174 8 0 15 5 15 10 0 6 -25 10 -55 10 -30 0 -55 -4 -55 -10 0 -5
7 -10 15 -10 21 0 26 -32 23 -135 l-3 -89 -90 122 -90 121 -42 1 c-24 0 -43
-4 -43 -9z"/>
<path d="M4090 1630 c0 -5 7 -10 15 -10 22 0 26 -32 23 -160 -3 -111 -4 -115
-28 -127 -22 -11 -17 -13 50 -13 67 0 72 2 50 13 -24 12 -25 16 -28 127 -3
128 1 160 23 160 8 0 15 5 15 10 0 6 -27 10 -60 10 -33 0 -60 -4 -60 -10z"/>
<path d="M4300 1630 c0 -5 7 -10 15 -10 17 0 35 -34 100 -192 26 -65 51 -118
54 -118 3 0 33 64 65 143 38 94 67 150 84 164 l27 23 -52 0 c-55 0 -63 -5 -37
-24 14 -10 11 -24 -26 -120 -23 -59 -46 -104 -50 -99 -13 13 -80 185 -80 205
0 10 7 18 15 18 8 0 15 5 15 10 0 6 -28 10 -65 10 -37 0 -65 -4 -65 -10z"/>
<path d="M4725 1630 c3 -5 12 -10 19 -10 20 0 26 -33 26 -140 0 -114 -5 -134
-33 -148 -17 -8 11 -11 111 -11 119 -1 132 1 132 17 0 9 3 27 6 40 9 31 -8 27
-27 -7 -19 -33 -78 -49 -122 -32 -26 10 -27 14 -27 76 0 59 2 65 20 65 12 0
32 -11 45 -25 l25 -24 0 56 c0 54 0 55 -17 35 -10 -12 -30 -24 -45 -28 l-28
-6 0 66 0 66 51 0 c56 0 89 -13 89 -35 0 -8 5 -15 11 -15 6 0 9 14 7 33 l-3
32 -123 3 c-83 2 -121 -1 -117 -8z"/>
<path d="M5100 1631 c0 -6 7 -11 15 -11 22 0 26 -32 23 -160 -3 -111 -4 -115
-28 -127 -22 -11 -16 -13 55 -12 44 1 71 4 60 6 -37 9 -45 24 -45 84 0 41 4
59 13 59 19 0 28 -10 86 -82 52 -67 54 -68 99 -68 l47 1 -32 17 c-28 15 -123
120 -123 136 0 3 7 6 15 6 25 0 65 46 65 74 0 14 -11 37 -24 53 -22 26 -29 27
-125 31 -70 3 -101 1 -101 -7z m179 -25 c7 -8 13 -29 13 -47 1 -41 -31 -69
-78 -69 l-34 0 0 65 0 65 44 0 c26 0 48 -6 55 -14z"/>
<path d="M5535 1615 c-25 -24 -33 -76 -17 -102 4 -7 39 -29 77 -50 61 -34 70
-42 73 -70 3 -34 -25 -63 -63 -63 -29 0 -82 35 -90 59 -11 36 -20 23 -16 -25
2 -30 7 -42 13 -36 7 7 22 5 46 -5 47 -19 97 -9 134 27 56 56 32 105 -80 165
-44 23 -58 36 -60 56 -7 60 77 67 115 10 l23 -34 0 48 c0 37 -3 45 -13 37 -8
-7 -18 -7 -27 -2 -30 19 -90 11 -115 -15z"/>
<path d="M5830 1631 c0 -5 9 -11 20 -14 19 -5 20 -14 20 -140 0 -129 -1 -134
-22 -145 -19 -9 -10 -11 47 -11 57 0 66 2 48 11 -22 11 -23 16 -23 145 0 126
1 135 20 140 41 11 18 23 -45 23 -36 0 -65 -4 -65 -9z"/>
<path d="M6060 1598 l0 -43 20 33 c18 28 25 32 65 32 l45 0 0 -135 0 -134 -27
-15 c-27 -14 -24 -15 57 -15 69 1 80 2 57 11 -35 13 -38 29 -35 168 l3 115 29
3 c46 6 75 -6 82 -33 10 -39 24 -30 24 15 l0 40 -160 0 -160 0 0 -42z"/>
<path d="M6480 1631 c0 -5 9 -11 20 -14 20 -5 20 -12 18 -138 -3 -131 -3 -134
-28 -146 -21 -11 -5 -13 113 -13 l137 0 0 40 c0 44 -14 54 -24 16 -12 -47
-123 -59 -146 -16 -15 28 -13 110 3 116 21 8 67 -14 67 -31 0 -8 5 -15 10 -15
6 0 10 25 10 55 0 53 -13 74 -23 36 -4 -17 -53 -35 -69 -24 -5 2 -8 31 -8 64
l0 59 59 0 c52 0 62 -3 80 -26 l21 -27 0 37 0 36 -120 0 c-66 0 -120 -4 -120
-9z"/>
<path d="M6897 1620 c-22 -17 -27 -30 -27 -64 0 -48 11 -62 80 -96 25 -12 53
-29 63 -38 45 -39 -2 -100 -68 -88 -31 6 -67 37 -78 69 -10 27 -19 -5 -12 -43
5 -32 10 -39 20 -30 8 6 16 7 19 2 10 -16 67 -22 107 -12 45 12 72 47 71 91
-1 41 -13 53 -93 95 -68 36 -85 56 -73 88 15 38 97 32 116 -9 16 -35 28 -31
28 9 0 26 -4 35 -17 36 -10 0 -38 3 -63 6 -37 5 -50 2 -73 -16z"/>
<path d="M7190 1631 c0 -5 9 -11 20 -14 20 -5 20 -12 18 -138 -3 -131 -3 -134
-28 -146 -22 -11 -17 -13 50 -12 41 1 67 3 57 6 -28 7 -37 45 -37 159 0 91 3
107 20 124 11 11 20 22 20 25 0 3 -27 5 -60 5 -33 0 -60 -4 -60 -9z"/>
</g>
</svg>
