<?xml version="1.0" standalone="no"?>
<!DOCTYPE svg PUBLIC "-//W3C//DTD SVG 20010904//EN"
 "http://www.w3.org/TR/2001/REC-SVG-20010904/DTD/svg10.dtd">
<svg version="1.0" xmlns="http://www.w3.org/2000/svg"
 width="250.000000pt" height="253.000000pt" viewBox="0 0 250.000000 253.000000"
 preserveAspectRatio="xMidYMid meet">

<g transform="translate(0.000000,253.000000) scale(0.100000,-0.100000)"
fill="#000000" stroke="none">
<path d="M1123 2520 c-366 -38 -703 -242 -908 -549 -409 -614 -199 -1438 455
-1790 221 -119 521 -167 777 -126 520 84 938 495 1028 1009 20 116 20 329 -1
437 -75 395 -319 719 -673 894 -206 102 -455 148 -678 125z m109 -65 c0 -5 -5
-11 -11 -13 -6 -2 -11 4 -11 13 0 9 5 15 11 13 6 -2 11 -8 11 -13z m60 0 c0
-5 -5 -11 -11 -13 -6 -2 -11 4 -11 13 0 9 5 15 11 13 6 -2 11 -8 11 -13z m-79
-42 c-21 -8 -17 -162 4 -185 20 -22 56 -23 77 -2 20 20 23 179 4 187 -7 3 5 5
27 5 22 0 34 -2 28 -5 -9 -3 -13 -30 -13 -85 0 -75 -2 -81 -29 -109 -33 -32
-67 -37 -110 -14 -37 18 -41 31 -41 120 0 60 -3 76 -17 84 -14 8 -7 10 32 10
28 0 44 -3 38 -6z m378 -198 c10 7 32 122 25 134 -8 12 7 13 44 1 14 -4 18 -8
9 -9 -11 -1 -24 -30 -45 -97 -16 -52 -33 -96 -39 -96 -5 0 -33 41 -61 92 l-52
93 -13 -44 c-6 -24 -12 -59 -13 -76 -1 -18 -5 -33 -11 -32 -17 1 -51 18 -38
18 6 1 14 9 17 19 3 9 17 57 31 106 l27 89 56 -101 c31 -55 59 -99 63 -97z
m229 105 c0 -21 -15 -27 -25 -10 -7 12 2 30 16 30 5 0 9 -9 9 -20z m-942 -103
c39 -37 68 -57 77 -53 30 11 14 -4 -17 -17 -30 -12 -33 -11 -58 16 -26 29 -27
29 -58 13 -31 -16 -39 -37 -26 -70 3 -9 11 -13 18 -9 7 4 8 3 1 -4 -5 -5 -23
-15 -39 -22 -26 -11 -28 -11 -16 4 10 12 11 42 6 133 l-7 117 28 -25 c15 -14
56 -51 91 -83z m942 48 c0 -3 -5 -4 -10 -2 -6 1 -32 -38 -57 -86 -39 -73 -45
-90 -33 -97 24 -15 4 -11 -33 6 l-34 16 21 22 c12 11 37 55 56 97 l35 76 28
-14 c15 -7 27 -16 27 -18z m117 -83 c-13 -3 -61 -132 -52 -140 8 -9 135 70
129 80 -4 5 5 2 19 -7 l26 -17 -111 -54 c-61 -30 -113 -52 -116 -49 -3 3 9 52
26 109 18 59 29 112 25 122 -5 13 4 10 30 -12 22 -17 32 -30 24 -32z m-1353
-44 c9 -12 16 -33 16 -45 0 -26 26 -36 98 -37 l43 -1 -23 -19 c-22 -18 -75
-18 -121 0 -11 4 -19 0 -23 -10 -8 -22 32 -66 55 -59 9 2 3 -7 -14 -21 -23
-20 -31 -22 -35 -12 -3 8 -31 44 -64 81 -40 46 -63 65 -75 61 -9 -3 6 14 32
39 55 50 87 57 111 23z m881 -52 c33 -9 93 -32 134 -52 528 -249 646 -937 230
-1344 -347 -340 -903 -312 -1217 61 -69 82 -141 219 -169 319 -25 92 -25 329
0 420 83 305 338 545 648 610 68 14 304 5 374 -14z m695 -117 c17 -24 18 -28
5 -39 -12 -10 -15 -9 -15 4 0 9 -5 25 -12 35 -12 19 -12 19 -40 0 -34 -24 -35
-43 -6 -63 12 -9 20 -17 17 -19 -2 -1 -11 -8 -20 -15 -13 -10 -15 -8 -15 9 1
12 -7 26 -16 32 -14 9 -22 6 -43 -13 -14 -13 -25 -29 -25 -35 0 -19 37 -48 52
-40 7 3 4 -1 -7 -10 -19 -15 -22 -14 -62 32 -40 45 -55 72 -34 58 5 -3 44 22
86 56 56 44 75 65 71 77 -6 17 27 -19 64 -69z m-1725 -55 c89 -21 109 -23 123
-12 10 8 8 1 -6 -19 -21 -30 -24 -31 -59 -21 -33 9 -39 8 -55 -12 -10 -12 -18
-27 -18 -34 0 -20 31 -57 42 -50 5 4 2 -6 -8 -22 -16 -23 -19 -25 -22 -10 -2
10 -27 55 -56 100 -70 108 -69 106 -57 106 5 0 57 -12 116 -26z m1830 -104
c29 -58 31 -82 8 -105 -12 -12 -27 -16 -54 -12 -37 5 -38 4 -57 -47 -11 -28
-22 -57 -24 -65 -2 -8 -8 -4 -15 12 -9 20 -7 33 12 76 31 65 25 87 -15 66 -16
-8 -33 -22 -38 -30 -6 -12 -12 -8 -25 20 -10 20 -12 33 -6 29 17 -10 191 77
185 93 -13 32 6 8 29 -37z m-1856 -112 c12 15 13 13 6 -13 -3 -16 -9 -33 -13
-37 -4 -3 -38 0 -76 7 l-68 13 57 -58 c66 -66 69 -61 -45 -79 l-55 -8 59 -27
c47 -22 61 -24 68 -14 11 16 0 -30 -13 -52 -7 -13 -8 -13 -9 0 0 9 -39 35 -97
64 -110 54 -109 58 10 71 37 4 69 11 72 14 2 4 -23 34 -55 66 -33 33 -60 62
-60 66 0 3 46 -2 103 -12 95 -16 103 -16 116 -1z m1950 -152 c7 -8 15 -30 18
-50 5 -32 3 -36 -16 -36 -18 0 -20 3 -10 19 16 24 5 51 -20 51 -14 0 -27 -13
-41 -39 -21 -42 -54 -71 -81 -71 -33 0 -61 34 -63 76 -1 36 1 39 29 42 l30 3
-22 -16 c-26 -19 -30 -47 -8 -65 21 -18 41 -7 71 42 15 24 32 46 38 50 18 13
63 9 75 -6z m-2033 -191 c-3 -13 -24 -36 -46 -52 -51 -36 -53 -63 -5 -63 22 0
38 6 44 18 8 14 10 9 11 -23 l0 -40 -101 3 c-76 3 -104 0 -110 -10 -5 -8 -9
13 -9 51 0 94 36 126 92 81 l26 -20 46 41 c25 22 47 48 47 57 1 14 2 14 6 -1
3 -10 2 -29 -1 -42z m2064 0 l0 -35 -74 0 c-94 0 -134 -8 -139 -29 -3 -9 -5 7
-6 34 0 28 3 45 7 38 11 -17 192 -5 199 14 9 22 13 15 13 -22z m58 -7 c-3 -7
-11 -13 -18 -13 -7 0 -15 6 -17 13 -3 7 4 12 17 12 13 0 20 -5 18 -12z m-62
-106 c7 -5 7 -35 0 -99 -9 -91 -10 -93 -35 -93 -23 1 -24 2 -8 11 10 6 17 22
17 38 0 28 0 29 -87 38 -76 9 -90 8 -100 -5 -12 -14 -13 -14 -13 0 0 34 13 79
20 68 7 -11 108 -29 164 -30 27 0 28 2 24 40 -4 41 -1 45 18 32z m-2046 -117
c0 -11 -13 -31 -30 -45 -26 -22 -29 -29 -22 -55 6 -23 15 -31 37 -33 15 -2 31
1 35 7 3 7 11 -3 17 -22 l10 -34 -26 13 c-14 8 -36 14 -48 14 -40 0 -173 22
-173 29 0 3 40 35 90 71 61 44 90 71 90 85 0 17 2 17 10 5 5 -8 10 -24 10 -35z
m1917 -131 c70 -21 87 -24 95 -12 8 10 9 10 4 -2 -2 -8 -13 -39 -22 -67 -10
-29 -23 -53 -29 -53 -22 0 -23 12 -4 31 26 26 24 38 -7 49 -40 16 -51 12 -57
-19 -5 -23 -10 -28 -26 -24 -19 5 -19 5 1 25 25 25 19 40 -20 52 -46 13 -65 2
-60 -34 3 -17 3 -30 2 -30 -1 0 -9 3 -17 6 -13 4 -12 14 6 69 17 54 22 61 34
49 8 -7 53 -25 100 -40z m-1837 -124 c0 -4 -25 -27 -55 -51 -30 -24 -53 -44
-52 -45 1 -1 36 2 77 7 41 5 76 6 79 4 2 -3 -12 -31 -32 -64 -21 -32 -37 -61
-37 -64 0 -3 24 5 53 18 33 15 52 29 51 39 -2 24 4 20 22 -15 8 -17 11 -29 6
-25 -5 3 -51 -12 -103 -34 -51 -22 -97 -39 -101 -38 -4 2 12 35 37 73 24 39
45 74 45 79 0 8 -126 0 -162 -10 -34 -10 -17 12 63 79 58 50 79 73 75 85 -4
11 2 8 14 -7 11 -13 20 -27 20 -31z m1694 -5 c19 -14 19 -15 -7 -15 -29 0 -53
-31 -43 -57 5 -11 16 -14 46 -9 22 3 58 9 79 12 34 5 41 3 56 -20 18 -27 14
-58 -12 -88 -13 -14 -19 -15 -37 -6 -21 12 -21 12 3 18 32 7 50 35 33 52 -10
10 -22 9 -60 -2 -64 -18 -93 -16 -114 10 -23 28 -23 47 2 88 22 36 27 37 54
17z m-36 -210 c50 -39 78 -55 90 -50 12 4 10 -2 -8 -22 -14 -15 -28 -32 -33
-38 -5 -6 -6 -4 -2 5 7 20 -139 134 -160 126 -21 -8 -19 1 8 33 15 19 24 24
27 15 3 -7 38 -38 78 -69z m118 -96 c10 -17 -13 -36 -27 -22 -12 12 -4 33 11
33 5 0 12 -5 16 -11z m-620 -196 c4 -13 1 -30 -5 -36 -15 -15 -14 -27 3 -27
24 0 46 -29 46 -60 0 -39 -51 -82 -94 -78 -20 2 -32 9 -34 21 -3 16 -1 17 16
6 10 -7 30 -9 45 -5 52 13 42 82 -13 93 l-30 5 20 25 c15 19 17 30 9 44 -14
27 -57 25 -68 -3 -8 -21 -10 -21 -16 -5 -9 22 -6 26 41 42 47 16 73 9 80 -22z
m-549 2 c-4 -8 -16 -51 -28 -96 -18 -62 -20 -85 -11 -99 10 -17 8 -17 -35 -4
-53 16 -65 24 -36 24 16 0 24 12 37 63 10 34 20 70 22 80 4 12 -1 17 -18 18
-19 0 -17 3 12 14 47 18 63 18 57 0z m201 -32 c17 -23 15 -30 -12 -58 -19 -19
-22 -27 -12 -32 7 -5 19 -19 26 -32 30 -58 -80 -111 -129 -62 -28 28 -26 52 3
80 23 22 24 25 10 47 -19 28 -10 62 19 74 30 13 79 4 95 -17z m170 15 c17 -17
15 -48 -3 -68 -14 -16 -13 -19 10 -34 19 -12 25 -25 25 -51 0 -41 -29 -65 -79
-65 -63 0 -93 57 -51 95 l20 18 -20 22 c-25 27 -25 50 0 75 22 22 79 27 98 8z"/>
<path d="M790 2216 c0 -35 1 -36 23 -25 12 6 23 13 24 14 2 1 -8 12 -22 25
l-25 23 0 -37z"/>
<path d="M501 2121 c-15 -10 -5 -35 28 -65 42 -38 72 13 31 54 -22 22 -37 25
-59 11z"/>
<path d="M820 1812 c-97 -11 -100 -18 -100 -287 l0 -217 51 44 c185 158 238
190 280 167 33 -17 41 -45 30 -106 -8 -40 -8 -60 0 -69 17 -20 43 -2 134 91
89 92 126 110 171 80 24 -15 25 -21 23 -90 -2 -41 0 -77 3 -81 17 -16 60 11
109 69 72 85 115 117 154 117 70 0 78 -54 29 -185 -38 -102 -49 -175 -27 -182
7 -2 32 15 58 38 l45 42 0 257 c0 239 -1 260 -19 281 l-19 24 -449 5 c-246 3
-459 4 -473 2z"/>
<path d="M761 1285 l-41 -45 0 -214 c0 -213 0 -215 24 -243 l24 -28 477 -3
476 -3 29 30 30 29 0 187 0 187 -62 -57 c-35 -32 -94 -79 -132 -106 -112 -79
-153 -64 -158 56 -3 64 -5 70 -26 73 -17 3 -43 -16 -105 -76 -45 -44 -92 -85
-104 -91 -62 -32 -95 5 -91 100 3 61 2 64 -21 67 -19 3 -42 -14 -105 -76 -108
-106 -144 -123 -179 -84 -25 28 -21 65 19 194 20 64 34 123 31 132 -11 28 -43
17 -86 -29z"/>
<path d="M370 1886 c0 -4 7 -18 16 -32 l17 -25 14 21 c8 12 13 23 11 25 -7 7
-58 17 -58 11z"/>
<path d="M2208 1779 c-40 -21 -47 -39 -24 -59 22 -17 70 8 74 39 5 36 -9 41
-50 20z"/>
<path d="M136 1285 c-31 -31 -20 -45 35 -45 49 0 50 1 47 28 -2 22 -9 28 -34
30 -19 2 -38 -3 -48 -13z"/>
<path d="M228 1026 c-26 -19 -22 -26 16 -26 29 0 33 3 29 20 -6 23 -21 25 -45
6z"/>
<path d="M1143 324 c-8 -22 9 -49 33 -49 30 0 27 59 -4 63 -14 2 -25 -3 -29
-14z"/>
<path d="M1132 228 c-17 -17 -15 -63 3 -78 19 -16 52 -4 60 21 7 23 -18 69
-38 69 -7 0 -18 -5 -25 -12z"/>
<path d="M1316 324 c-4 -11 1 -25 13 -38 17 -16 22 -17 36 -6 9 7 15 23 13 34
-4 28 -52 35 -62 10z"/>
<path d="M1326 224 c-12 -31 -6 -63 13 -74 25 -13 27 -13 45 6 21 21 20 40 -4
64 -24 24 -46 26 -54 4z"/>
</g>
</svg>
